<svg xmlns="http://www.w3.org/2000/svg" viewBox="0 0 1200 620" fill="none">
  <g stroke="#5b7180" stroke-width="2" stroke-linecap="round" stroke-linejoin="round" opacity="0.48">
    <!-- network topology -->
    <circle cx="115" cy="105" r="28"/><circle cx="245" cy="55" r="22"/><circle cx="300" cy="165" r="24"/><circle cx="185" cy="245" r="25"/>
    <path d="M139 94 224 64M132 124 166 225M269 73 294 141M275 179 207 230M210 245 275 178"/>
    <circle cx="115" cy="105" r="5" fill="#5b7180"/><circle cx="245" cy="55" r="4" fill="#5b7180"/><circle cx="300" cy="165" r="5" fill="#5b7180"/><circle cx="185" cy="245" r="5" fill="#5b7180"/>
    <!-- switch -->
    <rect x="810" y="95" width="270" height="78" rx="12"/>
    <path d="M835 120h220M835 148h220"/>
    <circle cx="850" cy="120" r="4"/><circle cx="870" cy="120" r="4"/><circle cx="890" cy="120" r="4"/><circle cx="910" cy="120" r="4"/>
    <circle cx="850" cy="148" r="4"/><circle cx="870" cy="148" r="4"/><circle cx="890" cy="148" r="4"/><circle cx="910" cy="148" r="4"/>
    <!-- server -->
    <rect x="870" y="255" width="170" height="220" rx="12"/>
    <path d="M890 285h130M890 340h130M890 395h130M890 450h130"/>
    <circle cx="910" cy="310" r="5"/><circle cx="930" cy="310" r="5"/>
    <circle cx="910" cy="365" r="5"/><circle cx="930" cy="365" r="5"/>
    <circle cx="910" cy="420" r="5"/><circle cx="930" cy="420" r="5"/>
    <circle cx="910" cy="465" r="5"/><circle cx="930" cy="465" r="5"/>
    <!-- linux terminal -->
    <rect x="470" y="380" width="250" height="145" rx="14"/>
    <path d="M470 415h250"/>
    <path d="m495 450 20 15-20 15M535 480h45"/>
    <path d="M620 450h70M620 475h48"/>
    <!-- ethernet plug/cable -->
    <path d="M410 120v55h-18v38h70v-38h-18v-55z"/>
    <path d="M397 213v42c0 34 28 62 62 62h60"/>
    <path d="M450 120v-22M422 120v-22M478 120v-22"/>
    <!-- wifi -->
    <path d="M545 120c54-48 132-48 186 0M570 150c40-35 96-35 136 0M600 180c22-19 54-19 76 0"/>
    <circle cx="638" cy="204" r="5" fill="#5b7180"/>
    <!-- small connected devices -->
    <rect x="90" y="390" width="150" height="95" rx="10"/>
    <rect x="110" y="410" width="110" height="55" rx="5"/>
    <path d="M150 485v22h30v-22M135 507h60"/>
    <path d="M240 438h90M330 438l30-30M330 438l30 30"/>
    <circle cx="365" cy="408" r="12"/><circle cx="365" cy="468" r="12"/>
    <!-- subtle binary/command marks -->
    <path d="M1080 520h45M1080 540h28M760 55h35M760 75h52M55 315h42M55 335h25"/>
  </g>
</svg>
